<svg width="37" height="30" viewBox="0 0 37 30" fill="none" xmlns="http://www.w3.org/2000/svg">
<path d="M36.4347 3.8169C35.1127 4.40273 33.6924 4.79856 32.1993 4.97748C33.7399 4.05565 34.8925 2.6048 35.442 0.895646C33.9946 1.75538 32.4105 2.36054 30.7585 2.68481C29.6476 1.49868 28.1762 0.712496 26.5727 0.448313C24.9692 0.184131 23.3233 0.456733 21.8906 1.2238C20.4579 1.99086 19.3186 3.20947 18.6494 4.69043C17.9803 6.17138 17.8188 7.83183 18.19 9.41398C15.2572 9.26672 12.3881 8.50443 9.76892 7.17658C7.14976 5.84873 4.83908 3.98498 2.98683 1.70631C2.3535 2.79881 1.98933 4.06548 1.98933 5.41448C1.98862 6.62889 2.28768 7.8247 2.85997 8.89581C3.43226 9.96691 4.26009 10.8802 5.27 11.5546C4.09877 11.5174 2.95338 11.2009 1.92916 10.6316V10.7266C1.92905 12.4298 2.51822 14.0807 3.5967 15.399C4.67519 16.7173 6.17657 17.6219 7.84608 17.9592C6.75957 18.2533 5.62045 18.2966 4.51475 18.0859C4.98579 19.5514 5.90332 20.833 7.13891 21.7512C8.3745 22.6694 9.86628 23.1782 11.4054 23.2064C8.79265 25.2575 5.5659 26.37 2.24425 26.3651C1.65585 26.3653 1.06795 26.3309 0.483582 26.2622C3.85525 28.4301 7.78012 29.5806 11.7886 29.5761C25.3577 29.5761 32.7757 18.3376 32.7757 8.59065C32.7757 8.27398 32.7677 7.95415 32.7535 7.63748C34.1964 6.59402 35.4419 5.3019 36.4316 3.82165L36.4347 3.8169V3.8169Z" fill="black"/>
</svg>
